<svg width="32" height="32" viewBox="0 0 32 32" fill="none" xmlns="http://www.w3.org/2000/svg">
  <!-- Background Circle -->
  <circle cx="16" cy="16" r="16" fill="#E91E63"/>
  
  <!-- Strawberry Icon -->
  <path d="M16 8C14 8 12 10 12 12C12 14 14 16 16 16C18 16 20 14 20 12C20 10 18 8 16 8Z" fill="white"/>
  
  <!-- Strawberry Body -->
  <path d="M16 16C14 16 12 18 12 20C12 22 14 24 16 24C18 24 20 22 20 20C20 18 18 16 16 16Z" fill="white"/>
  
  <!-- Seeds -->
  <circle cx="14" cy="12" r="0.5" fill="#E91E63"/>
  <circle cx="18" cy="12" r="0.5" fill="#E91E63"/>
  <circle cx="14" cy="18" r="0.5" fill="#E91E63"/>
  <circle cx="18" cy="18" r="0.5" fill="#E91E63"/>
</svg>
