<svg width="64" height="64" viewBox="0 0 64 64" fill="none" xmlns="http://www.w3.org/2000/svg">
  <!-- Background Circle -->
  <circle cx="32" cy="32" r="32" fill="#E91E63"/>
  
  <!-- Strawberry Shape -->
  <path d="M32 12C28 12 24 16 24 20C24 24 28 28 32 28C36 28 40 24 40 20C40 16 36 12 32 12Z" fill="white"/>
  
  <!-- Strawberry Body -->
  <path d="M32 28C28 28 24 32 24 36C24 40 28 44 32 44C36 44 40 40 40 36C40 32 36 28 32 28Z" fill="white"/>
  
  <!-- Strawberry Seeds -->
  <circle cx="28" cy="20" r="1.5" fill="#E91E63"/>
  <circle cx="36" cy="20" r="1.5" fill="#E91E63"/>
  <circle cx="28" cy="32" r="1.5" fill="#E91E63"/>
  <circle cx="36" cy="32" r="1.5" fill="#E91E63"/>
  
  <!-- Chocolate Drip -->
  <path d="M32 44C30 44 28 46 28 48C28 50 30 52 32 52C34 52 36 50 36 48C36 46 34 44 32 44Z" fill="#8B4513"/>
</svg>
